<svg xmlns="http://www.w3.org/2000/svg" width="15" height="19"><g data-name="Group 18" fill="#a6ced0"><path data-name="Path 27" d="M14.17 4.214H0V19h15V4.214zm0 13.929H.83V5.071h13.34z"/><path data-name="Path 28" d="M10.371 5.643A.551.551 0 0 1 10.44 6a.485.485 0 1 1-.969 0 .549.549 0 0 1 .069-.357v-3.5a.785.785 0 0 0-.208-.5c0-.071-.069-.143-.138-.214l-.069-.071c-.069 0-.069 0-.138-.071l-.069-.073a.069.069 0 0 1-.069-.071h-.138v-.072h-.138V1h-.139L8.365.928h-.208V.857h-.415V.786h-.484l-.069.071h-.346v.071h-.208L6.566 1h-.138v.071h-.139v.071h-.138l-.069.071-.069.071c-.069.071-.069.071-.139.071l-.069.071c-.069.071-.139.143-.139.214a.784.784 0 0 0-.207.5v3.5a.551.551 0 0 1 .069.36.485.485 0 1 1-.969 0 .549.549 0 0 1 .069-.357V2.071a2.3 2.3 0 0 1 1.038-1.5c0-.071.069-.071.139-.143h.138V.357h.069l.069-.071h.137V.214h.208V.143h.208l.069-.071h.277V0h1.038v.071h.277l.069.071h.208v.072h.208v.072h.138l.069.071h.069v.072h.139c.069.071.138.071.138.143a2.3 2.3 0 0 1 1.038 1.5v3.571z"/></g></svg>