<svg xmlns="http://www.w3.org/2000/svg" width="34.997" height="34.997"><g data-name="Group 10"><path data-name="Path 22" d="M17.499.096a17.4 17.4 0 1 0 17.4 17.4 17.415 17.415 0 0 0-17.4-17.4zm0 1.582A15.821 15.821 0 1 1 1.678 17.499 15.809 15.809 0 0 1 17.499 1.678zm-7.206 13.04a.791.791 0 0 0-.469 1.359l7.119 7.119a.791.791 0 0 0 1.112 0l7.119-7.119a.791.791 0 1 0-1.09-1.146l-.022.022-6.563 6.563-6.563-6.563a.791.791 0 0 0-.644-.235z" fill="#a6ced0" stroke="#a6ced0" stroke-miterlimit="10" stroke-width=".191"/></g></svg>