<svg xmlns="http://www.w3.org/2000/svg" width="44" height="28"><g data-name="Векторный смарт-объект"><path data-name="Path 23" d="M41.77 9.134h-1.836v-.056a1.5 1.5 0 0 0-1.477-1.512H36.77a1.5 1.5 0 0 0-1.479 1.512v.036h-2.493l-2.557-6.3a4.441 4.441 0 0 0-4.114-2.81H5.21A5.277 5.277 0 0 0 0 5.334v17.335A5.278 5.278 0 0 0 5.21 28h20.918a4.441 4.441 0 0 0 4.114-2.81l2.557-6.3h2.493v.036a1.5 1.5 0 0 0 1.478 1.508h1.683a1.5 1.5 0 0 0 1.477-1.512v-.056h1.84A2.264 2.264 0 0 0 44 16.578V11.42a2.264 2.264 0 0 0-2.23-2.286zm-3.281 4.35l-.033 5.472-1.716-.033v-1.515h-4.9l-2.927 7.215a3 3 0 0 1-2.779 1.9H5.21a3.814 3.814 0 0 1-3.765-3.853V5.33A3.814 3.814 0 0 1 5.21 1.478h20.918a3 3 0 0 1 2.779 1.9l2.927 7.215h4.9V9.078l.033-.033 1.716.033zm4.071 3.1a.8.8 0 0 1-.79.808h-1.836v-6.78h1.836a.8.8 0 0 1 .79.808z" fill="#a6ced0"/><g data-name="Group 17"><g data-name="Group 12"><g data-name="Group 11"><path data-name="Path 24" d="M15.51 17.029a.341.341 0 0 1-.018-.681h.006l-5.328-.341a.334.334 0 0 1-.274-.181.348.348 0 0 1 .008-.333l5.329-9.2a.33.33 0 0 1 .377-.155.34.34 0 0 1 .243.333l-.008.586 5.281 9.168a.348.348 0 0 1 .007.334.334.334 0 0 1-.275.179l-5.329.291zm-4.755-1.669l4.785.306a.342.342 0 0 1 .028.677l4.7-.257-4.957-8.6z" fill="#a6ced0" stroke="#a6ced0" stroke-miterlimit="10" stroke-width=".602"/></g></g><g data-name="Group 14"><g data-name="Group 13"><path data-name="Path 25" d="M18.97 21.747h-6.9a4.843 4.843 0 0 1-4.535-4.376.345.345 0 0 1 .107-.307.325.325 0 0 1 .311-.074l1.794.507a3.683 3.683 0 0 0 .82.134l4.777.228c.119.005.238.005.358 0l5.053-.26a3.666 3.666 0 0 0 .9-.16l1.434-.445a.325.325 0 0 1 .315.069.346.346 0 0 1 .11.311 4.844 4.844 0 0 1-4.544 4.373zM8.296 17.795a4.077 4.077 0 0 0 3.767 3.27h6.907a4.073 4.073 0 0 0 3.763-3.254l-.894.277a4.308 4.308 0 0 1-1.058.189l-5.052.26a4.19 4.19 0 0 1-.423 0l-4.777-.228a4.35 4.35 0 0 1-.966-.158z" fill="#a6ced0" stroke="#a6ced0" stroke-miterlimit="10" stroke-width=".602"/></g></g><g data-name="Group 16"><g data-name="Group 15"><path data-name="Path 26" d="M15.519 18.556a.337.337 0 0 1-.333-.34l-.009-12.772a.337.337 0 0 1 .333-.341h0a.337.337 0 0 1 .333.34l.009 12.772a.337.337 0 0 1-.333.341z" fill="#a6ced0" stroke="#a6ced0" stroke-miterlimit="10" stroke-width=".602"/></g></g></g></g></svg>