<svg xmlns="http://www.w3.org/2000/svg" width="28" height="40"><defs><clipPath id="a"><path transform="translate(85.682)" fill="none" d="M0 0h28v40H0z"/></clipPath></defs><g data-name="Векторный смарт-объект" transform="translate(-85.682)" clip-path="url(#a)"><g data-name="Group 1" fill="#a6ced0" stroke="#a6ced0" stroke-miterlimit="10" stroke-width=".207"><path data-name="Path 1" d="M99.716 11.708h-.069a13.629 13.629 0 0 0-7.021 1.944V9.03a7.54 7.54 0 0 1 7.4-7.3h.125c3.756 0 6.588 3.136 6.588 7.3v.076a.855.855 0 1 0 1.711 0V9.03c0-5.148-3.567-9.03-8.3-9.03h-.125a9.191 9.191 0 0 0-9.109 9.03v5.714a.811.811 0 0 0 .011.106 14.11 14.11 0 0 0-5.142 10.918v.07A13.978 13.978 0 0 0 99.648 39.9h.069a13.978 13.978 0 0 0 13.863-14.059v-.07a13.978 13.978 0 0 0-13.864-14.063zm12.152 14.129a12.253 12.253 0 0 1-12.152 12.324h-.069A12.253 12.253 0 0 1 87.5 25.837v-.07a12.253 12.253 0 0 1 12.148-12.324h.069a12.253 12.253 0 0 1 12.152 12.324z"/><path data-name="Path 2" d="M99.9 24.082a3.534 3.534 0 0 0-.855 6.95v2.36a.855.855 0 1 0 1.71 0v-2.36a3.534 3.534 0 0 0-.855-6.95zm0 5.327a1.8 1.8 0 1 1 1.772-1.8 1.786 1.786 0 0 1-1.772 1.8z"/></g></g></svg>