<svg xmlns="http://www.w3.org/2000/svg" width="38" height="31"><g data-name="Векторный смарт-объект" fill="#a6ced0"><path data-name="Path 9" d="M.274 30.175a.841.841 0 0 0 .854.826h36.015a.842.842 0 0 0 .855-.826V8.541a.084.084 0 0 1 0-.027.8.8 0 0 0-.025-.168l-.011-.036a.865.865 0 0 0-.068-.156l-.023-.047-7-7.707a.867.867 0 0 0-.733-.4h-22a.866.866 0 0 0-.733.4L.399 8.123c.006-.007 0 .006-.01.027a.787.787 0 0 0-.065.144l-.322-.022.3.073a.8.8 0 0 0-.025.168v.057zM8.619 1.652h21.036l5.981 6.072h-33zM1.984 9.375h34.307v19.974H1.984z"/><path data-name="Path 10" d="M27.311 20.188a.826.826 0 1 0 0-1.651H13.025l3.213-3.105a.806.806 0 0 0 0-1.168.9.9 0 0 0-1.208 0l-4.671 4.515a.806.806 0 0 0 0 1.168l4.671 4.515a.9.9 0 0 0 1.208 0 .8.8 0 0 0 0-1.167l-3.213-3.106z"/></g></svg>