<svg xmlns="http://www.w3.org/2000/svg" width="35" height="35"><g data-name="Group 7" fill="#a6ced0" stroke="#a6ced0" stroke-miterlimit="10" stroke-width=".191"><path data-name="Path 15" d="M17.5 34.905a17.4 17.4 0 1 1 17.4-17.4 17.425 17.425 0 0 1-17.4 17.4zm0-33.3a15.891 15.891 0 1 0 15.891 15.891A15.909 15.909 0 0 0 17.5 1.609z"/><path data-name="Path 16" d="M34.147 18.257H17.5a.757.757 0 0 1-.757-.757V.852a.757.757 0 0 1 1.514 0v15.892h15.891a.757.757 0 1 1 0 1.513z"/><path data-name="Path 17" d="M28.85 29.608a.76.76 0 0 1-.536-.221l-11.35-11.351a.757.757 0 1 1 1.07-1.07l11.351 11.351a.756.756 0 0 1-.534 1.291z"/></g></svg>