<svg xmlns="http://www.w3.org/2000/svg" width="15" height="19" viewBox="0 0 15 19">
  <g id="Group_18" data-name="Group 18" transform="translate(-7.182)">
    <path id="Path_27" data-name="Path 27" d="M21.352,4.214H7.182V19h15V4.214Zm0,13.929H8.012V5.071H21.352Z" fill="#a6ced0"/>
    <path id="Path_28" data-name="Path 28" d="M17.553,5.643A.551.551,0,0,1,17.622,6a.485.485,0,1,1-.969,0,.549.549,0,0,1,.069-.357v-3.5a.785.785,0,0,0-.208-.5h0c0-.071-.069-.143-.138-.214h0l-.069-.071h0c-.069,0-.069,0-.138-.071h0L16.1,1.214a.069.069,0,0,1-.069-.071h-.138V1.071h-.138V1h-.139L15.547.928h-.208V.857h-.415V.786H14.44l-.069.071h-.346V.928h-.208L13.748,1H13.61v.071h-.139v.071h-.138l-.069.071-.069.071h0c-.069.071-.069.071-.139.071h0l-.069.071h0c-.069.071-.139.143-.139.214h0a.784.784,0,0,0-.207.5v3.5A.551.551,0,0,1,12.71,6a.485.485,0,1,1-.969,0,.549.549,0,0,1,.069-.357V2.071h0a2.3,2.3,0,0,1,1.038-1.5c0-.071.069-.071.139-.143h.138V.357h.069l.069-.071H13.4V.214h.208V.143h.208l.069-.071h.277V0H15.2V.071h.277l.069.071h.208V.214h.208V.286H16.1l.069.071h.069V.429h.139c.069.071.138.071.138.143a2.3,2.3,0,0,1,1.038,1.5h0V5.643Z" fill="#a6ced0"/>
  </g>
</svg>
