<svg xmlns="http://www.w3.org/2000/svg" width="34.997" height="34.997" viewBox="0 0 34.997 34.997">
<g>
  <g id="Group_10" data-name="Group 10" transform="translate(-145.032 -2.365)">
    <path id="Path_22" data-name="Path 22" d="M162.531,2.461a17.4,17.4,0,1,0,17.4,17.4A17.415,17.415,0,0,0,162.531,2.461Zm0,1.582A15.821,15.821,0,1,1,146.71,19.864,15.809,15.809,0,0,1,162.531,4.043Zm-7.206,13.04a.791.791,0,0,0-.469,1.359l7.119,7.119a.791.791,0,0,0,1.112,0l7.119-7.119a.791.791,0,1,0-1.09-1.146l-.022.022-6.563,6.563-6.563-6.563A.791.791,0,0,0,155.324,17.083Z" fill="#a6ced0" stroke="#a6ced0" stroke-miterlimit="10" stroke-width="0.191"/>
  </g>
</g>
</svg>
