<svg xmlns="http://www.w3.org/2000/svg" width="38" height="31" viewBox="0 0 38 31">
<g>
  <g id="Векторный_смарт-объект" data-name="Векторный смарт-объект" transform="translate(-149.657 -2.441)">
    <path id="Path_9" data-name="Path 9" d="M149.931,32.616a.841.841,0,0,0,.854.826H186.8a.842.842,0,0,0,.855-.826V10.982h0a.084.084,0,0,1,0-.027.8.8,0,0,0-.025-.168l-.011-.036a.865.865,0,0,0-.068-.156l-.023-.047-7-7.707a.867.867,0,0,0-.733-.4h-22a.866.866,0,0,0-.733.4l-7.006,7.723c.006-.007,0,.006-.01.027a.787.787,0,0,0-.065.144l-.322-.022.3.073a.8.8,0,0,0-.025.168v.031l0,.026Zm8.345-28.523h21.036l5.981,6.072h-33Zm-6.635,7.723h34.307V31.79H151.641Z" fill="#a6ced0"/>
    <path id="Path_10" data-name="Path 10" d="M176.968,22.629a.826.826,0,1,0,0-1.651H162.682l3.213-3.105a.806.806,0,0,0,0-1.168.9.9,0,0,0-1.208,0l-4.671,4.515a.806.806,0,0,0,0,1.168l4.671,4.515a.9.9,0,0,0,1.208,0,.8.8,0,0,0,0-1.167l-3.213-3.106Z" fill="#a6ced0"/>
  </g>
</g>
</svg>
